<?xml version="1.0" encoding="UTF-8" standalone="no"?>
<!DOCTYPE svg PUBLIC "-//W3C//DTD SVG 1.1//EN" "http://www.w3.org/Graphics/SVG/1.1/DTD/svg11.dtd">
<!-- Generated by graphviz version 2.40.1 (20161225.0304)
 -->
<!-- Title: G Pages: 1 -->
<svg width="293pt" height="260pt" viewBox="0.00 0.00 293.30 260.00" xmlns="http://www.w3.org/2000/svg" xmlns:xlink="http://www.w3.org/1999/xlink">
<g id="graph0" class="graph" transform="scale(1 1) rotate(0) translate(4 256)">
<title>G</title>
<polygon fill="#ffffff" stroke="transparent" points="-4,4 -4,-256 289.2962,-256 289.2962,4 -4,4"/>
<!-- ryskmesh -->
<g id="node1" class="node">
<title>ryskmesh</title>
<ellipse fill="none" stroke="#000000" cx="48.0467" cy="-162" rx="48.0935" ry="18"/>
<text text-anchor="middle" x="48.0467" y="-157.8" font-family="Times,serif" font-size="14.00" fill="#000000">ryskmesh</text>
</g>
<!-- ryskurl -->
<g id="node2" class="node">
<title>ryskurl</title>
<polygon fill="none" stroke="#000000" points="140.7042,-36 85.3893,-36 85.3893,0 140.7042,0 140.7042,-36"/>
<text text-anchor="middle" x="113.0467" y="-13.8" font-family="Times,serif" font-size="14.00" fill="#000000">ryskurl</text>
</g>
<!-- ryskmesh&#45;&gt;ryskurl -->
<g id="edge1" class="edge">
<title>ryskmesh-&gt;ryskurl</title>
<path fill="none" stroke="#000000" d="M39.0833,-144.0222C30.9818,-125.0492 22.0165,-94.7953 34.0467,-72 43.0566,-54.9278 60.1626,-42.2286 76.1592,-33.4497"/>
<polygon fill="#000000" stroke="#000000" points="78.0727,-36.4022 85.3799,-28.7305 74.8835,-30.1709 78.0727,-36.4022"/>
</g>
<!-- ryskstream -->
<g id="node3" class="node">
<title>ryskstream</title>
<polygon fill="none" stroke="#000000" points="120.9687,-108 43.1248,-108 43.1248,-72 120.9687,-72 120.9687,-108"/>
<text text-anchor="middle" x="82.0467" y="-85.8" font-family="Times,serif" font-size="14.00" fill="#000000">ryskstream</text>
</g>
<!-- ryskmesh&#45;&gt;ryskstream -->
<g id="edge2" class="edge">
<title>ryskmesh-&gt;ryskstream</title>
<path fill="none" stroke="#000000" d="M56.4512,-144.2022C60.3043,-136.0428 64.9568,-126.1904 69.2326,-117.1358"/>
<polygon fill="#000000" stroke="#000000" points="72.3975,-118.6302 73.5028,-108.0931 66.0678,-115.6411 72.3975,-118.6302"/>
</g>
<!-- ryskwasm -->
<g id="node4" class="node">
<title>ryskwasm</title>
<ellipse fill="none" stroke="#000000" cx="192.0467" cy="-234" rx="50.38" ry="18"/>
<text text-anchor="middle" x="192.0467" y="-229.8" font-family="Times,serif" font-size="14.00" fill="#000000">ryskwasm</text>
</g>
<!-- ryskdecoder -->
<g id="node5" class="node">
<title>ryskdecoder</title>
<ellipse fill="none" stroke="#000000" cx="192.0467" cy="-162" rx="58.4493" ry="18"/>
<text text-anchor="middle" x="192.0467" y="-157.8" font-family="Times,serif" font-size="14.00" fill="#000000">ryskdecoder</text>
</g>
<!-- ryskwasm&#45;&gt;ryskdecoder -->
<g id="edge3" class="edge">
<title>ryskwasm-&gt;ryskdecoder</title>
<path fill="none" stroke="#000000" d="M192.0467,-215.8314C192.0467,-208.131 192.0467,-198.9743 192.0467,-190.4166"/>
<polygon fill="#000000" stroke="#000000" points="195.5468,-190.4132 192.0467,-180.4133 188.5468,-190.4133 195.5468,-190.4132"/>
</g>
<!-- ryskdecoder&#45;&gt;ryskstream -->
<g id="edge6" class="edge">
<title>ryskdecoder-&gt;ryskstream</title>
<path fill="none" stroke="#000000" d="M167.086,-145.6621C152.6455,-136.2101 134.2196,-124.1495 118.2139,-113.673"/>
<polygon fill="#000000" stroke="#000000" points="119.8953,-110.5905 109.6114,-108.0423 116.0616,-116.4474 119.8953,-110.5905"/>
</g>
<!-- ryskdownloader -->
<g id="node6" class="node">
<title>ryskdownloader</title>
<ellipse fill="none" stroke="#000000" cx="212.0467" cy="-90" rx="73.4997" ry="18"/>
<text text-anchor="middle" x="212.0467" y="-85.8" font-family="Times,serif" font-size="14.00" fill="#000000">ryskdownloader</text>
</g>
<!-- ryskdecoder&#45;&gt;ryskdownloader -->
<g id="edge4" class="edge">
<title>ryskdecoder-&gt;ryskdownloader</title>
<path fill="none" stroke="#000000" d="M197.0936,-143.8314C199.2561,-136.0463 201.832,-126.7729 204.2315,-118.1347"/>
<polygon fill="#000000" stroke="#000000" points="207.6278,-118.9852 206.932,-108.4133 200.8831,-117.1117 207.6278,-118.9852"/>
</g>
<!-- ryskdownloader&#45;&gt;ryskurl -->
<g id="edge5" class="edge">
<title>ryskdownloader-&gt;ryskurl</title>
<path fill="none" stroke="#000000" d="M188.5851,-72.937C175.9897,-63.7767 160.2498,-52.3295 146.4027,-42.2589"/>
<polygon fill="#000000" stroke="#000000" points="148.2166,-39.2503 138.0706,-36.1992 144.0994,-44.9115 148.2166,-39.2503"/>
</g>
</g>
</svg>